<svg width="30" height="27" viewBox="0 0 30 27" fill="none" xmlns="http://www.w3.org/2000/svg">
<mask id="mask0_0_15" style="mask-type:alpha" maskUnits="userSpaceOnUse" x="-3" y="-3" width="40" height="34">
<rect x="-2.31594" y="-2.81468" width="38.3275" height="33.3591" fill="#D9D9D9"/>
</mask>
<g mask="url(#mask0_0_15)">
<path d="M8.94276 27C8.22412 27 7.61184 26.7798 7.10591 26.3395C6.60063 25.8997 6.34799 25.3554 6.34799 24.7066C6.34799 24.0577 6.60063 23.5134 7.10591 23.0736C7.61184 22.6333 8.22412 22.4131 8.94276 22.4131C9.68823 22.4131 10.3136 22.6333 10.8189 23.0736C11.3248 23.5134 11.5778 24.0577 11.5778 24.7066C11.5778 25.3554 11.3248 25.8997 10.8189 26.3395C10.3136 26.7798 9.68823 27 8.94276 27ZM24.5928 27C23.848 27 23.2293 26.7798 22.7368 26.3395C22.2443 25.8997 21.998 25.3554 21.998 24.7066C21.998 24.0577 22.2443 23.5134 22.7368 23.0736C23.2293 22.6333 23.848 22.4131 24.5928 22.4131C25.3115 22.4131 25.9304 22.6333 26.4498 23.0736C26.9685 23.5134 27.2278 24.0577 27.2278 24.7066C27.2278 25.3554 26.9685 25.8997 26.4498 26.3395C25.9304 26.7798 25.3115 27 24.5928 27ZM6.82708 4.55185L11.1782 12.4404H22.5969L27.0688 5.3166C27.2016 5.10811 27.2147 4.92853 27.1081 4.77786C27.002 4.62718 26.8292 4.55185 26.5897 4.55185H6.82708ZM8.82298 19.842C7.78495 19.842 7.03309 19.4887 6.56741 18.782C6.10173 18.0753 6.10844 17.3515 6.58753 16.6103L8.983 12.7532L3.03362 1.80723H0.997472C0.731735 1.80723 0.498896 1.71438 0.298954 1.52868C0.0996514 1.34354 0 1.13504 0 0.903198C0 0.648556 0.0996514 0.434502 0.298954 0.261035C0.498896 0.0870116 0.74515 0 1.03772 0H3.35365C3.69924 0 3.97871 0.0694981 4.19207 0.208494C4.40478 0.347491 4.59099 0.521236 4.75069 0.72973L5.82865 2.77965H28.0662C28.8385 2.77965 29.3777 3.02289 29.6837 3.50938C29.9896 3.99586 29.9695 4.5057 29.6233 5.03889L24.5928 12.9266C24.3533 13.3203 24.0208 13.633 23.5953 13.8649C23.1693 14.0967 22.7033 14.2126 22.1974 14.2126H10.4203L8.62368 16.9923C8.49017 17.2241 8.49688 17.4615 8.6438 17.7045C8.79009 17.948 9.00951 18.0698 9.30208 18.0698H26.3099C26.5494 18.0698 26.7689 18.1624 26.9682 18.3475C27.1681 18.5326 27.2681 18.7411 27.2681 18.973C27.2681 19.2048 27.1681 19.4075 26.9682 19.581C26.7689 19.755 26.536 19.842 26.2696 19.842H8.82298Z" fill="#1C1B1F"/>
</g>
</svg>
