<svg width="34" height="34" viewBox="0 0 34 34" fill="none" xmlns="http://www.w3.org/2000/svg">
<mask id="mask0_21_330" style="mask-type:alpha" maskUnits="userSpaceOnUse" x="-4" y="-4" width="42" height="42">
<rect x="-3.45113" y="-3.49407" width="40.9023" height="40.9023" fill="#D9D9D9"/>
</mask>
<g mask="url(#mask0_21_330)">
<path d="M18.7465 33.9141V31.0602C19.9968 30.8897 21.2112 30.5628 22.3899 30.0795C23.5686 29.5969 24.6692 28.9578 25.6917 28.1622L27.6939 30.2073C26.3877 31.2872 24.9817 32.1325 23.4758 32.7433C21.9706 33.3534 20.3942 33.7437 18.7465 33.9141ZM30.2084 27.6509L28.2052 25.6917C28.9721 24.6971 29.5972 23.6176 30.0805 22.4533C30.5632 21.2889 30.904 20.039 31.1031 18.7036H34C33.773 20.4365 33.3398 22.0555 32.7003 23.5607C32.0616 25.0666 31.2309 26.43 30.2084 27.6509ZM31.1031 15.2105C30.904 13.8751 30.5632 12.6323 30.0805 11.4823C29.5972 10.3316 28.9721 9.24493 28.2052 8.22238L30.2084 6.26316C31.2875 7.62657 32.1325 9.03258 32.7433 10.4812C33.3541 11.9298 33.773 13.5063 34 15.2105H31.1031ZM15.2105 33.9141C10.8647 33.4315 7.24311 31.5782 4.34586 28.3545C1.44862 25.1307 0 21.3315 0 16.9571C0 12.5826 1.44862 8.78342 4.34586 5.55964C7.24311 2.33586 10.8647 0.482647 15.2105 0V2.85396C11.6602 3.33728 8.7132 4.91372 6.3695 7.58328C4.02649 10.2535 2.85498 13.3781 2.85498 16.9571C2.85498 20.5074 4.02649 23.6248 6.3695 26.3094C8.7132 28.9932 11.6602 30.5768 15.2105 31.0602V33.9141ZM25.7766 5.75188C24.6975 4.98496 23.5614 4.35984 22.3684 3.87651C21.1754 3.39386 19.9825 3.05301 18.7895 2.85396V0C20.3799 0.198376 21.9349 0.602967 23.4544 1.21377C24.9746 1.82458 26.3877 2.65558 27.6939 3.70677L25.7766 5.75188ZM17 25.7766C14.614 23.7601 12.8457 21.8926 11.695 20.174C10.5449 18.4554 9.96992 16.8718 9.96992 15.4232C9.96992 13.2077 10.6799 11.4537 12.0999 10.1611C13.5206 8.86863 15.1539 8.22238 17 8.22238C18.8461 8.22238 20.4794 8.86863 21.9001 10.1611C23.3201 11.4537 24.0301 13.2077 24.0301 15.4232C24.0301 16.8718 23.4551 18.4554 22.305 20.174C21.1543 21.8926 19.386 23.7601 17 25.7766ZM17 17C17.5399 17 17.9871 16.8224 18.3416 16.4672C18.6968 16.1121 18.8743 15.6645 18.8743 15.1246C18.8743 14.642 18.6968 14.2091 18.3416 13.826C17.9871 13.4422 17.5399 13.2503 17 13.2503C16.4601 13.2503 16.0129 13.4422 15.6584 13.826C15.3032 14.2091 15.1257 14.642 15.1257 15.1246C15.1257 15.6645 15.3032 16.1121 15.6584 16.4672C16.0129 16.8224 16.4601 17 17 17Z" fill="#1C1B1F"/>
</g>
</svg>
