<svg width="21" height="22" viewBox="0 0 21 22" fill="none" xmlns="http://www.w3.org/2000/svg">
<path d="M16.8291 0.751923H4.1774C3.26888 0.751923 2.39763 1.14292 1.75533 1.83874C1.11286 2.53475 0.751923 3.47863 0.751923 4.46286V14.6926C0.751923 15.6769 1.11284 16.6207 1.75533 17.3165C2.39761 18.0125 3.26888 18.4036 4.1774 18.4036H7.52414L9.19098 20.3797C9.52672 20.781 10.0034 21.0098 10.5033 21.0098C11.0032 21.0098 11.48 20.7809 11.8157 20.3797L13.4825 18.3964H16.8293C17.7354 18.3944 18.604 18.0036 19.2449 17.3096C19.8856 16.6153 20.2463 15.6742 20.2481 14.6926V4.46286C20.2481 3.47991 19.8882 2.53712 19.2471 1.84137C18.6063 1.14557 17.7366 0.753914 16.8293 0.751994L16.8291 0.751923Z" stroke="#161616" stroke-width="1.5" stroke-linecap="round" stroke-linejoin="round"/>
</svg>
