<svg width="27" height="32" viewBox="0 0 27 32" fill="none" xmlns="http://www.w3.org/2000/svg">
<path fill-rule="evenodd" clip-rule="evenodd" d="M13.2182 31.9012C13.3054 31.9671 13.4027 32 13.5 32C13.5973 32 13.6946 31.9671 13.7818 31.9012C13.9163 31.8009 17.1079 29.3779 20.3507 25.4754C24.7629 20.166 27 14.9195 27 9.88242C27 3.09283 23.4681 0 20.1864 0C17.6563 0 14.8258 1.88278 13.5 6.02388C12.1742 1.88278 9.34425 0 6.81356 0C3.53194 0 0 3.09283 0 9.88242C0 14.9195 2.23706 20.166 6.64931 25.4754C9.89213 29.3779 13.0838 31.8002 13.2182 31.9012ZM1.12503 9.88253C1.12503 4.09876 4.07366 1.46418 6.8136 1.46418C9.32966 1.46418 12.2023 3.70639 12.9477 8.71348C12.9988 9.05753 13.2306 9.30642 13.5 9.30642C13.7695 9.30642 14.0012 9.05753 14.0524 8.71348C14.7977 3.70566 17.6704 1.46418 20.1865 1.46418C22.9264 1.46418 25.875 4.09876 25.875 9.88253C25.875 20.0234 15.3692 28.9117 13.5 30.4131C11.6292 28.9124 1.12503 20.0307 1.12503 9.88253Z" fill="#161616"/>
</svg>
