<svg width="21" height="23" viewBox="0 0 21 23" fill="none" xmlns="http://www.w3.org/2000/svg">
<path d="M10.5 21.0834C15.3325 21.0834 19.25 16.7928 19.25 11.5001C19.25 6.20735 15.3325 1.91675 10.5 1.91675C5.66751 1.91675 1.75 6.20735 1.75 11.5001C1.75 16.7928 5.66751 21.0834 10.5 21.0834Z" stroke="#161616" stroke-width="1.5" stroke-linecap="round" stroke-linejoin="round"/>
<path d="M7.95374 8.62506C8.15945 7.98457 8.56549 7.44449 9.09995 7.10048C9.6344 6.75646 10.2628 6.63071 10.8738 6.74549C11.4848 6.86027 12.039 7.20818 12.4382 7.72761C12.8374 8.24703 13.0559 8.90443 13.055 9.58339C13.055 11.5001 10.43 12.4584 10.43 12.4584" stroke="#161616" stroke-width="1.5" stroke-linecap="round" stroke-linejoin="round"/>
<path d="M10.5 16.2917H10.5087" stroke="#161616" stroke-width="1.5" stroke-linecap="round" stroke-linejoin="round"/>
</svg>
