<svg width="42" height="42" viewBox="0 0 42 42" fill="none" xmlns="http://www.w3.org/2000/svg">
<path d="M41.3753 8.63976C39.914 9.28726 38.3443 9.72476 36.694 9.92251C38.3968 8.90365 39.6707 7.30008 40.278 5.41101C38.6782 6.36124 36.9274 7.0301 35.1015 7.38851C33.8737 6.07753 32.2474 5.20858 30.4751 4.91659C28.7028 4.6246 26.8837 4.9259 25.3002 5.77371C23.7167 6.62151 22.4574 7.9684 21.7178 9.60524C20.9782 11.2421 20.7997 13.0773 21.21 14.826C17.9685 14.6633 14.7973 13.8207 11.9025 12.3531C9.00764 10.8855 6.45372 8.82554 4.4065 6.30701C3.7065 7.51451 3.304 8.91451 3.304 10.4055C3.30322 11.7478 3.63376 13.0694 4.26629 14.2533C4.89882 15.4372 5.81378 16.4466 6.93 17.192C5.63548 17.1508 4.36953 16.801 3.2375 16.1718V16.2768C3.23737 18.1593 3.88856 19.9839 5.08057 21.441C6.27258 22.8981 7.932 23.8979 9.77725 24.2708C8.57637 24.5958 7.31734 24.6436 6.09525 24.4108C6.61587 26.0306 7.62999 27.4471 8.99564 28.4619C10.3613 29.4767 12.0101 30.0391 13.7113 30.0703C10.8235 32.3372 7.25705 33.5669 3.58575 33.5615C2.93542 33.5617 2.28563 33.5237 1.63975 33.4478C5.36633 35.8438 9.70435 37.1154 14.1348 37.1105C29.1323 37.1105 37.331 24.689 37.331 13.916C37.331 13.566 37.3223 13.2125 37.3065 12.8625C38.9013 11.7092 40.2778 10.2811 41.3718 8.64501L41.3753 8.63976Z" fill="black"/>
</svg>
