<svg width="42" height="42" viewBox="0 0 42 42" fill="none" xmlns="http://www.w3.org/2000/svg">
<g clip-path="url(#clip0_21_339)">
<path d="M41.125 11.3873C40.8872 10.5389 40.4239 9.77087 39.7845 9.16476C39.127 8.54002 38.3211 8.09312 37.443 7.86626C34.1565 7.00001 20.9895 7.00001 20.9895 7.00001C15.5003 6.93756 10.0125 7.21224 4.557 7.82251C3.67883 8.06613 2.87449 8.52301 2.2155 9.15251C1.568 9.77551 1.099 10.5438 0.854001 11.3855C0.265463 14.5561 -0.0204885 17.7754 5.11296e-07 21C-0.0209995 24.2218 0.26425 27.44 0.854001 30.6145C1.09375 31.4528 1.561 32.2175 2.21025 32.8353C2.8595 33.453 3.668 33.8993 4.557 34.1355C7.88725 35 20.9895 35 20.9895 35C26.4857 35.0625 31.9805 34.7879 37.443 34.1775C38.3211 33.9506 39.127 33.5038 39.7845 32.879C40.4237 32.273 40.8864 31.5049 41.1233 30.6565C41.7272 27.4872 42.0208 24.2665 42 21.0403C42.0454 17.8003 41.7522 14.5645 41.125 11.3855V11.3873ZM16.8035 26.992V15.0098L27.7585 21.0018L16.8035 26.992Z" fill="black"/>
</g>
<defs>
<clipPath id="clip0_21_339">
<rect width="42" height="42" fill="white"/>
</clipPath>
</defs>
</svg>
