<svg width="48" height="48" viewBox="0 0 48 48" fill="none" xmlns="http://www.w3.org/2000/svg">
<path fill-rule="evenodd" clip-rule="evenodd" d="M24 40C32.837 40 40 32.837 40 24C40 15.163 32.837 8 24 8C15.163 8 8 15.163 8 24C8 32.837 15.163 40 24 40ZM24 42C33.941 42 42 33.941 42 24C42 14.059 33.941 6 24 6C14.059 6 6 14.059 6 24C6 33.941 14.059 42 24 42Z" fill="black"/>
<path fill-rule="evenodd" clip-rule="evenodd" d="M21.286 21.249C21.393 21.647 21.432 22.084 21.302 22.442C21.2767 22.5113 21.2364 22.5742 21.184 22.6261C21.1315 22.6781 21.0682 22.7177 20.9987 22.7423C20.9291 22.7669 20.8549 22.7757 20.7815 22.7682C20.7081 22.7607 20.6372 22.7371 20.574 22.699C20.3066 22.5304 20.0507 22.3444 19.808 22.142L19.613 21.982C19.433 21.836 19.259 21.694 19.079 21.559C18.577 21.184 18.179 20.986 17.834 21.003C17.472 21.021 17.034 21.274 16.472 21.718C16.313 21.843 16.143 21.985 15.967 22.133C15.579 22.457 15.159 22.808 14.76 23.064C14.6894 23.1095 14.6084 23.1364 14.5246 23.1423C14.4408 23.1483 14.3569 23.133 14.2805 23.0979C14.2042 23.0628 14.1379 23.0091 14.0878 22.9416C14.0378 22.8742 14.0055 22.7952 13.994 22.712C13.944 22.347 14.02 21.891 14.163 21.445C14.3262 20.9424 14.5602 20.4656 14.858 20.029C15.478 19.122 16.484 18.267 17.831 18.323C19.131 18.378 20.095 19.14 20.675 19.97C20.967 20.386 21.173 20.833 21.285 21.249H21.286ZM26.63 21.249C26.522 21.647 26.483 22.084 26.613 22.442C26.6382 22.5115 26.6786 22.5745 26.7311 22.6265C26.7836 22.6785 26.847 22.7183 26.9167 22.7429C26.9864 22.7674 27.0608 22.7763 27.1343 22.7687C27.2078 22.7611 27.2788 22.7373 27.342 22.699C27.604 22.541 27.863 22.339 28.107 22.142L28.303 21.982C28.483 21.836 28.657 21.694 28.837 21.559C29.338 21.184 29.737 20.986 30.081 21.003C30.444 21.021 30.881 21.274 31.444 21.718C31.602 21.843 31.772 21.985 31.949 22.133C32.336 22.457 32.756 22.808 33.156 23.064C33.2266 23.1092 33.3075 23.136 33.3911 23.1418C33.4748 23.1476 33.5586 23.1323 33.6348 23.0972C33.711 23.0622 33.7771 23.0085 33.8271 22.9412C33.8772 22.8739 33.9094 22.795 33.921 22.712C33.971 22.347 33.895 21.891 33.753 21.445C33.5898 20.9424 33.3558 20.4656 33.058 20.029C32.438 19.122 31.431 18.267 30.084 18.323C28.784 18.378 27.821 19.14 27.24 19.97C26.9652 20.3584 26.7589 20.791 26.63 21.249ZM24 37C19.962 37 16.462 33.952 14.742 29.5C14.7252 29.457 14.7085 29.414 14.692 29.371C14.246 28.18 15.2 27 16.473 27H31.528C32.801 27 33.756 28.18 33.308 29.371C33.2918 29.414 33.2755 29.457 33.259 29.5C31.538 33.952 28.038 37 24 37ZM31.276 29.072C30.976 29.8 30.627 30.468 30.241 31.072H17.759C17.4105 30.525 17.1052 29.9515 16.846 29.357V29.072H31.276Z" fill="black"/>
<path fill-rule="evenodd" clip-rule="evenodd" d="M31.272 33.072C31.499 32.777 31.716 32.469 31.922 32.149C32.4811 31.2749 32.9454 30.3436 33.307 29.371C33.69 28.354 33.049 27.344 32.06 27.071C31.8863 27.0235 31.7071 26.9996 31.527 27H16.473C16.2929 26.9999 16.1136 27.0241 15.94 27.072C15.4894 27.1935 15.0998 27.4774 14.846 27.869C14.7037 28.0895 14.6157 28.3406 14.5891 28.6016C14.5625 28.8627 14.5981 29.1263 14.693 29.371C14.7941 29.6368 14.9014 29.9003 15.015 30.161C15.325 30.866 15.681 31.531 16.078 32.149C16.284 32.469 16.501 32.777 16.728 33.071C18.602 35.502 21.168 37 24 37C26.831 37 29.398 35.502 31.272 33.072ZM31.276 29.072C30.9905 29.7678 30.6442 30.4371 30.241 31.072H17.759C17.4105 30.525 17.1052 29.9516 16.846 29.357V29.072H31.276Z" fill="black"/>
</svg>
