<svg width="71" height="64" viewBox="0 0 71 64" fill="none" xmlns="http://www.w3.org/2000/svg">
<path d="M26.625 58.6667C28.2588 58.6667 29.5833 57.4728 29.5833 56C29.5833 54.5272 28.2588 53.3333 26.625 53.3333C24.9911 53.3333 23.6666 54.5272 23.6666 56C23.6666 57.4728 24.9911 58.6667 26.625 58.6667Z" stroke="#FF9D01" stroke-width="1.83333" stroke-linecap="round" stroke-linejoin="round"/>
<path d="M59.1667 58.6667C60.8005 58.6667 62.125 57.4728 62.125 56C62.125 54.5272 60.8005 53.3333 59.1667 53.3333C57.5329 53.3333 56.2084 54.5272 56.2084 56C56.2084 57.4728 57.5329 58.6667 59.1667 58.6667Z" stroke="#FF9D01" stroke-width="1.83333" stroke-linecap="round" stroke-linejoin="round"/>
<path d="M2.95837 2.66666L14.7917 2.66666L22.72 38.3733C22.9906 39.601 23.7315 40.7039 24.8132 41.4888C25.8949 42.2737 27.2484 42.6906 28.6367 42.6667L57.3917 42.6667C58.7801 42.6906 60.1335 42.2737 61.2152 41.4888C62.2969 40.7039 63.0378 39.601 63.3084 38.3733L68.0417 16L17.75 16" stroke="#FF9D01" stroke-width="1.83333" stroke-linecap="round" stroke-linejoin="round"/>
<path d="M19.3636 18.4546C19.3636 17.9023 19.8114 17.4546 20.3636 17.4546L64.5455 17.4546L64.5455 39.7273C64.5455 40.2796 64.0978 40.7273 63.5455 40.7273L23.3637 40.7273C21.1545 40.7273 19.3636 38.9364 19.3636 36.7273L19.3636 18.4546Z" fill="#FF9D01"/>
</svg>
