<svg width="36" height="39" viewBox="0 0 36 39" fill="none" xmlns="http://www.w3.org/2000/svg">
<path d="M17.9996 10.9551V14.7486" stroke="#161616" stroke-width="1.875" stroke-linecap="round" stroke-linejoin="round"/>
<path d="M19.1452 18.3796C19.1452 19.0649 18.6323 19.6205 17.9997 19.6205C17.3671 19.6205 16.8542 19.0649 16.8542 18.3796C16.8542 17.6943 17.3671 17.1387 17.9997 17.1387C18.6323 17.1387 19.1452 17.6943 19.1452 18.3796Z" fill="#161616"/>
<path d="M24.3093 5.23975H11.6899C10.7837 5.23975 9.91469 5.62974 9.27404 6.32378C8.6332 7.01802 8.27319 7.95948 8.27319 8.94119V19.1448C8.27319 20.1265 8.63319 21.0679 9.27404 21.762C9.91467 22.4562 10.7837 22.8462 11.6899 22.8462H15.0281L16.6907 24.8173C17.0255 25.2175 17.501 25.4458 17.9997 25.4458C18.4983 25.4458 18.9738 25.2175 19.3087 24.8173L20.9712 22.8391H24.3094C25.2132 22.8371 26.0797 22.4473 26.7189 21.755C27.3579 21.0625 27.7177 20.1239 27.7195 19.1448V8.94119C27.7195 7.96075 27.3605 7.02038 26.7211 6.3264C26.0819 5.63238 25.2144 5.24173 24.3094 5.23982L24.3093 5.23975Z" stroke="#161616" stroke-width="1.5" stroke-linecap="round" stroke-linejoin="round"/>
</svg>
