<svg width="40" height="44" viewBox="0 0 40 44" fill="none" xmlns="http://www.w3.org/2000/svg">
<path d="M39.6226 21.8868C39.6226 33.7989 30.806 43.3962 20 43.3962C9.19401 43.3962 0.377358 33.7989 0.377358 21.8868C0.377358 9.97472 9.19401 0.377358 20 0.377358C30.806 0.377358 39.6226 9.97472 39.6226 21.8868Z" fill="#E68A01" stroke="black" stroke-width="0.753165"/>
<mask id="mask0_18_190" style="mask-type:alpha" maskUnits="userSpaceOnUse" x="5" y="7" width="29" height="32">
<rect x="5.61403" y="7.67955" width="28.0702" height="30.7183" fill="#D9D9D9"/>
</mask>
<g mask="url(#mask0_18_190)">
<path d="M13.8596 35.1341C13.3333 35.1341 12.8849 34.9313 12.5144 34.5258C12.1443 34.1209 11.9593 33.6196 11.9593 33.0222C11.9593 32.4247 12.1443 31.9235 12.5144 31.5185C12.8849 31.113 13.3333 30.9103 13.8596 30.9103C14.4056 30.9103 14.8636 31.113 15.2336 31.5185C15.6042 31.9235 15.7894 32.4247 15.7894 33.0222C15.7894 33.6196 15.6042 34.1209 15.2336 34.5258C14.8636 34.9313 14.4056 35.1341 13.8596 35.1341ZM25.3214 35.1341C24.7759 35.1341 24.3228 34.9313 23.9621 34.5258C23.6014 34.1209 23.421 33.6196 23.421 33.0222C23.421 32.4247 23.6014 31.9235 23.9621 31.5185C24.3228 31.113 24.7759 30.9103 25.3214 30.9103C25.8477 30.9103 26.301 31.113 26.6814 31.5185C27.0613 31.9235 27.2512 32.4247 27.2512 33.0222C27.2512 33.6196 27.0613 34.1209 26.6814 34.5258C26.301 34.9313 25.8477 35.1341 25.3214 35.1341ZM12.3101 14.4629L15.4968 21.7271H23.8596L27.1347 15.1672C27.232 14.9752 27.2416 14.8098 27.1635 14.6711C27.0858 14.5323 26.9593 14.4629 26.7838 14.4629H12.3101ZM13.7719 28.5427C13.0117 28.5427 12.461 28.2173 12.12 27.5666C11.7789 26.9159 11.7838 26.2493 12.1347 25.5668L13.8891 22.015L9.5319 11.9356H8.04067C7.84605 11.9356 7.67552 11.8501 7.52909 11.6791C7.38312 11.5086 7.31014 11.3166 7.31014 11.1031C7.31014 10.8686 7.38312 10.6715 7.52909 10.5118C7.67552 10.3516 7.85587 10.2714 8.07014 10.2714H9.76628C10.0194 10.2714 10.2241 10.3354 10.3803 10.4634C10.5361 10.5914 10.6725 10.7514 10.7894 10.9434L11.5789 12.831H27.8652C28.4308 12.831 28.8257 13.055 29.0498 13.503C29.2739 13.951 29.2591 14.4205 29.0056 14.9114L25.3214 22.1748C25.1459 22.5372 24.9024 22.8252 24.5908 23.0387C24.2788 23.2522 23.9375 23.359 23.567 23.359H14.9417L13.6259 25.9186C13.5282 26.1321 13.5331 26.3507 13.6407 26.5744C13.7478 26.7986 13.9085 26.9108 14.1228 26.9108H26.5789C26.7544 26.9108 26.9151 26.996 27.061 27.1665C27.2074 27.337 27.2807 27.529 27.2807 27.7425C27.2807 27.956 27.2074 28.1426 27.061 28.3023C26.9151 28.4626 26.7445 28.5427 26.5494 28.5427H13.7719Z" fill="#1C1B1F"/>
</g>
</svg>
