<svg width="20" height="27" viewBox="0 0 20 27" fill="none" xmlns="http://www.w3.org/2000/svg">
<path fill-rule="evenodd" clip-rule="evenodd" d="M1.6875 26.5C1.032 26.5 0.5 25.9486 0.5 25.2692V11.7308C0.5 11.0514 1.032 10.5 1.6875 10.5H18.3125C18.968 10.5 19.5 11.0514 19.5 11.7308V25.2692C19.5 25.9486 18.968 26.5 18.3125 26.5H1.6875Z" stroke="white" stroke-linecap="round"/>
<path d="M15.5 10.5C15.5 9.88529 15.5 6.99706 15.5 6.38235C15.5 3.13353 12.8138 0.5 9.5 0.5C6.1862 0.5 3.5 3.13353 3.5 6.38235C3.5 6.99706 3.5 9.88529 3.5 10.5" stroke="white" stroke-linecap="round"/>
<path d="M11.5 17.3C11.5 16.3058 10.6047 15.5 9.5 15.5C8.39533 15.5 7.5 16.3058 7.5 17.3C7.5 17.831 7.76067 18.3038 8.16667 18.6332V20.3C8.16667 20.9624 8.764 21.5 9.5 21.5C10.236 21.5 10.8333 20.9624 10.8333 20.3V18.6332C11.2393 18.3038 11.5 17.831 11.5 17.3Z" stroke="white"/>
</svg>
