<svg width="18" height="23" viewBox="0 0 18 23" fill="none" xmlns="http://www.w3.org/2000/svg">
<path fill-rule="evenodd" clip-rule="evenodd" d="M14.5601 17.5431C14.5601 17.82 14.3335 18.0467 14.0565 18.0467H3.40242C3.12443 18.0467 2.89882 17.82 2.89882 17.5431V3.50477C2.89882 3.22779 3.12443 3.00118 3.40242 3.00118H14.0565C14.3335 3.00118 14.5601 3.22779 14.5601 3.50477V17.5431ZM14.0565 1.99398H3.40242C2.56947 1.99398 1.89163 2.67182 1.89163 3.50477V17.5431C1.89163 18.376 2.56947 19.0539 3.40242 19.0539H14.0565C14.8895 19.0539 15.5673 18.376 15.5673 17.5431V3.50477C15.5673 2.67182 14.8895 1.99398 14.0565 1.99398Z" fill="#3A3A3A"/>
<mask id="mask0_25_1416" style="mask-type:luminance" maskUnits="userSpaceOnUse" x="0" y="0" width="18" height="23">
<path fill-rule="evenodd" clip-rule="evenodd" d="M0 0H17.501V23.0001H0V0Z" fill="white"/>
</mask>
<g mask="url(#mask0_25_1416)">
<path fill-rule="evenodd" clip-rule="evenodd" d="M16.4938 20.6848C16.4938 21.4059 15.9066 21.9931 15.1855 21.9931H2.31554C1.59439 21.9931 1.0072 21.4059 1.0072 20.6848V2.31554C1.0072 1.59439 1.59439 1.0072 2.31554 1.0072H15.1855C15.9066 1.0072 16.4938 1.59439 16.4938 2.31554V20.6848ZM15.1855 0H2.31554C1.03842 0 0 1.03842 0 2.31554V20.6848C0 21.9619 1.03842 23.0003 2.31554 23.0003H15.1855C16.4626 23.0003 17.501 21.9619 17.501 20.6848V2.31554C17.501 1.03842 16.4626 0 15.1855 0Z" fill="white"/>
</g>
<path fill-rule="evenodd" clip-rule="evenodd" d="M8.75103 19.837C8.36326 19.837 8.04902 20.1513 8.04902 20.538C8.04902 20.9258 8.36326 21.2411 8.75103 21.2411C9.13779 21.2411 9.45204 20.9258 9.45204 20.538C9.45204 20.1513 9.13779 19.837 8.75103 19.837Z" fill="white"/>
</svg>
