<svg width="42" height="42" viewBox="0 0 42 42" fill="none" xmlns="http://www.w3.org/2000/svg">
<path d="M35 5.25H7C6.53587 5.25 6.09075 5.43437 5.76256 5.76256C5.43437 6.09075 5.25 6.53587 5.25 7V35C5.25 35.4641 5.43437 35.9093 5.76256 36.2374C6.09075 36.5656 6.53587 36.75 7 36.75H22.0763V24.57H17.9848V19.8012H22.0763V16.3012C22.0763 12.2325 24.5612 10.0153 28.2013 10.0153C29.4245 10.0118 30.6495 10.0747 31.8675 10.2025V14.4375H29.3562C27.3822 14.4375 26.9972 15.379 26.9972 16.7562V19.7925H31.717L31.1045 24.5612H26.9955V36.75H35C35.4641 36.75 35.9093 36.5656 36.2374 36.2374C36.5656 35.9093 36.75 35.4641 36.75 35V7C36.75 6.53587 36.5656 6.09075 36.2374 5.76256C35.9093 5.43437 35.4641 5.25 35 5.25Z" fill="black"/>
</svg>
