<svg width="21" height="23" viewBox="0 0 21 23" fill="none" xmlns="http://www.w3.org/2000/svg">
<path d="M14 2.875H0.875V15.3333H14V2.875Z" stroke="#161616" stroke-width="1.5" stroke-linecap="round" stroke-linejoin="round"/>
<path d="M14 7.66675H17.5L20.125 10.5417V15.3334H14V7.66675Z" stroke="#161616" stroke-width="1.5" stroke-linecap="round" stroke-linejoin="round"/>
<path d="M4.8125 20.1249C6.02062 20.1249 7 19.0523 7 17.7291C7 16.4059 6.02062 15.3333 4.8125 15.3333C3.60438 15.3333 2.625 16.4059 2.625 17.7291C2.625 19.0523 3.60438 20.1249 4.8125 20.1249Z" stroke="#161616" stroke-width="1.5" stroke-linecap="round" stroke-linejoin="round"/>
<path d="M16.1875 20.1249C17.3956 20.1249 18.375 19.0523 18.375 17.7291C18.375 16.4059 17.3956 15.3333 16.1875 15.3333C14.9794 15.3333 14 16.4059 14 17.7291C14 19.0523 14.9794 20.1249 16.1875 20.1249Z" stroke="#161616" stroke-width="1.5" stroke-linecap="round" stroke-linejoin="round"/>
</svg>
