<svg width="21" height="23" viewBox="0 0 21 23" fill="none" xmlns="http://www.w3.org/2000/svg">
<path d="M5.25 1.91675L2.625 5.75008V19.1667C2.625 19.6751 2.80937 20.1626 3.13756 20.522C3.46575 20.8815 3.91087 21.0834 4.375 21.0834H16.625C17.0891 21.0834 17.5342 20.8815 17.8624 20.522C18.1906 20.1626 18.375 19.6751 18.375 19.1667V5.75008L15.75 1.91675H5.25Z" stroke="#161616" stroke-width="1.5" stroke-linecap="round" stroke-linejoin="round"/>
<path d="M2.625 5.75H18.375" stroke="#161616" stroke-width="1.5" stroke-linecap="round" stroke-linejoin="round"/>
<path d="M14 9.58325C14 10.5999 13.6313 11.5749 12.9749 12.2938C12.3185 13.0127 11.4283 13.4166 10.5 13.4166C9.57174 13.4166 8.6815 13.0127 8.02513 12.2938C7.36875 11.5749 7 10.5999 7 9.58325" stroke="#161616" stroke-width="1.5" stroke-linecap="round" stroke-linejoin="round"/>
</svg>
