<svg width="37" height="32" viewBox="0 0 37 32" fill="none" xmlns="http://www.w3.org/2000/svg">
<path d="M18.5 29.3334C27.0144 29.3334 33.9167 23.3639 33.9167 16.0001C33.9167 8.63628 27.0144 2.66675 18.5 2.66675C9.98561 2.66675 3.08334 8.63628 3.08334 16.0001C3.08334 23.3639 9.98561 29.3334 18.5 29.3334Z" stroke="#161616" stroke-width="1.5" stroke-linecap="round" stroke-linejoin="round"/>
<path d="M14.0137 12C14.3762 11.1089 15.0916 10.3575 16.0333 9.87887C16.9749 9.40024 18.082 9.22528 19.1586 9.38498C20.2351 9.54467 21.2115 10.0287 21.9149 10.7514C22.6183 11.4741 23.0033 12.3887 23.0017 13.3334C23.0017 16 18.3767 17.3334 18.3767 17.3334" stroke="#161616" stroke-width="1.5" stroke-linecap="round" stroke-linejoin="round"/>
<path d="M18.5 22.6667H18.5154" stroke="#161616" stroke-width="1.5" stroke-linecap="round" stroke-linejoin="round"/>
</svg>
